<!DOCTYPE svg PUBLIC "-//W3C//DTD SVG 1.1//EN" "http://www.w3.org/Graphics/SVG/1.1/DTD/svg11.dtd">
<!-- Uploaded to: SVG Repo, www.svgrepo.com, Transformed by: SVG Repo Mixer Tools -->
<svg height="256px" width="256px" version="1.1" id="Capa_1" xmlns="http://www.w3.org/2000/svg" xmlns:xlink="http://www.w3.org/1999/xlink" viewBox="-15.17 -15.17 91.01 91.01" xml:space="preserve" fill="#000000" stroke="#000000" stroke-width="0.60671">
<g id="SVGRepo_bgCarrier" stroke-width="0" transform="translate(0,0), scale(1)">
<path transform="translate(-15.17, -15.17), scale(5.688125)" fill="#9f7eec" d="M9.166.33a2.25 2.25 0 00-2.332 0l-5.25 3.182A2.25 2.25 0 00.5 5.436v5.128a2.25 2.25 0 001.084 1.924l5.25 3.182a2.25 2.25 0 002.332 0l5.25-3.182a2.25 2.25 0 001.084-1.924V5.436a2.25 2.25 0 00-1.084-1.924L9.166.33z" strokewidth="0"/>
</g>
<g id="SVGRepo_tracerCarrier" stroke-linecap="round" stroke-linejoin="round" stroke="#CCCCCC" stroke-width="6.916493999999998"> <g> <g> <ellipse style="fill:#ffffff;" cx="30.336" cy="12.097" rx="11.997" ry="12.097"/> <path style="fill:#ffffff;" d="M35.64,30.079H25.031c-7.021,0-12.714,5.739-12.714,12.821v17.771h36.037V42.9 C48.354,35.818,42.661,30.079,35.64,30.079z"/> </g> </g> </g>
<g id="SVGRepo_iconCarrier"> <g> <g> <ellipse style="fill:#ffffff;" cx="30.336" cy="12.097" rx="11.997" ry="12.097"/> <path style="fill:#ffffff;" d="M35.64,30.079H25.031c-7.021,0-12.714,5.739-12.714,12.821v17.771h36.037V42.9 C48.354,35.818,42.661,30.079,35.64,30.079z"/> </g> </g> </g>
</svg>